<?xml version="1.0" encoding="UTF-8"?>
<!DOCTYPE svg PUBLIC "-//W3C//DTD SVG 1.0//EN" "http://www.w3.org/TR/2001/REC-SVG-20010904/DTD/svg10.dtd">
<!-- Creator: CorelDRAW X6 -->
<svg xmlns="http://www.w3.org/2000/svg" xml:space="preserve" width="27.0519mm" height="4.3426mm" version="1.0" style="shape-rendering:geometricPrecision; text-rendering:geometricPrecision; image-rendering:optimizeQuality; fill-rule:evenodd; clip-rule:evenodd"
viewBox="0 0 4103 659"
 xmlns:xlink="http://www.w3.org/1999/xlink">
 <defs>
  <style type="text/css">
   <![CDATA[
    .fil0 {fill:#FFCCCC;fill-rule:nonzero}
    .fil1 {fill:#FFFF99;fill-rule:nonzero}
   ]]>
  </style>
 </defs>
 <g id="Vrstva_x0020_1">
  <metadata id="CorelCorpID_0Corel-Layer"/>
  <g id="_924273664">
   <path class="fil0" d="M259 156c91,0 137,62 137,187 0,65 -19,115 -56,147 -37,33 -89,50 -158,50l-15 0 0 109 -167 10 0 -489 134 -8 7 62c9,-24 24,-42 43,-52 20,-10 45,-16 75,-16zm-66 52c-10,0 -18,5 -21,14 -4,9 -6,21 -6,37l1 40 0 191c5,6 12,8 21,8 17,0 28,-13 33,-40 5,-28 8,-65 8,-112 0,-43 -3,-76 -7,-101 -4,-24 -14,-37 -29,-37zm335 -208c24,0 44,5 58,16 15,11 23,25 23,44 0,18 -8,33 -24,43 -15,10 -35,15 -60,15 -25,0 -45,-5 -60,-15 -15,-10 -23,-24 -23,-42 0,-18 8,-33 24,-44 16,-11 37,-17 62,-17zm79 431c0,17 2,32 5,46 3,13 9,27 17,41 -9,5 -20,9 -35,12 -14,3 -28,5 -40,5 -36,0 -64,-8 -84,-25 -20,-17 -30,-42 -30,-76l0 -264 167 0 0 261zm337 -261l4 41 -120 249 120 -12 -9 77 -299 0 -4 -41 119 -248 -102 9 8 -75 283 0zm319 0l4 41 -120 249 120 -12 -9 77 -299 0 -4 -41 119 -248 -102 9 8 -75 283 0zm263 324c-7,16 -19,28 -35,35 -16,7 -35,11 -56,11 -44,0 -81,-9 -111,-25 -29,-17 -44,-43 -44,-80 0,-46 22,-76 66,-91 44,-14 101,-22 169,-22l0 -60c0,-20 -2,-36 -6,-47 -4,-12 -13,-18 -27,-18 -18,0 -30,6 -37,19 -6,12 -9,29 -9,51 0,9 1,22 1,37 -3,2 -10,4 -19,4 -9,1 -16,2 -22,2 -25,0 -47,-5 -64,-15 -18,-11 -27,-26 -27,-47 0,-36 19,-60 57,-73 38,-12 80,-19 125,-19 61,0 109,10 144,28 34,19 51,53 51,103l0 144c0,17 2,32 5,46 3,13 9,27 17,41 -9,5 -20,9 -36,12 -15,3 -28,5 -40,5 -51,0 -85,-14 -102,-41zm-47 -5c14,0 23,-6 28,-20 6,-13 8,-29 8,-47l0 -65c-26,0 -45,6 -56,18 -11,12 -17,31 -17,57 0,16 3,30 9,41 6,11 15,16 28,16zm2079 -20c12,0 21,3 28,9 7,5 10,13 10,24 0,10 -3,19 -11,24 -7,6 -17,9 -28,9 -12,0 -21,-3 -28,-8 -7,-6 -10,-14 -10,-24 0,-11 3,-19 11,-25 7,-6 17,-9 28,-9zm182 -193c-11,0 -19,3 -25,8 -7,5 -10,13 -10,23 0,14 5,25 14,33 9,9 23,18 43,29 15,8 27,16 36,22 10,7 17,15 24,25 7,11 10,23 10,38 0,26 -10,46 -28,61 -19,14 -43,21 -73,21 -25,0 -46,-4 -63,-13 -18,-9 -26,-23 -26,-43 0,-12 3,-21 11,-27 7,-7 17,-10 29,-10 9,0 16,2 21,6 -3,8 -4,16 -4,23 0,12 4,20 10,27 7,6 17,9 29,9 12,0 22,-3 29,-10 7,-7 10,-17 10,-30 0,-13 -4,-24 -14,-33 -9,-8 -23,-18 -42,-28 -15,-9 -28,-17 -37,-23 -9,-7 -17,-15 -24,-25 -6,-11 -9,-23 -9,-38 0,-23 9,-41 28,-54 18,-12 41,-19 68,-19 25,0 45,5 61,14 15,9 23,23 23,43 0,12 -3,21 -11,27 -7,7 -17,10 -30,10 -9,0 -16,-2 -21,-6 3,-8 5,-16 5,-24 0,-11 -3,-20 -9,-26 -6,-7 -14,-10 -25,-10zm149 249l0 -365 57 -6 0 371 -57 0zm151 -266l61 0 -90 110 92 156 -67 0 -83 -146 87 -120z"/>
   <path class="fil1" d="M1757 525l0 -487 76 -8 0 495 -76 0zm202 -355l81 0 -120 147 123 208 -89 0 -111 -195 116 -160zm255 -14c52,0 91,17 116,51 25,33 37,79 37,136 0,60 -12,108 -36,144 -24,35 -63,53 -117,53 -53,0 -91,-17 -115,-51 -25,-34 -37,-80 -37,-140 0,-57 13,-104 38,-139 25,-36 63,-54 114,-54zm0 342c29,0 48,-14 56,-42 9,-28 14,-65 14,-110 0,-41 -5,-76 -15,-105 -9,-29 -27,-43 -55,-43 -46,0 -69,49 -69,148 0,45 5,82 13,110 9,28 27,42 56,42zm334 -305c-14,0 -25,4 -34,11 -8,7 -12,17 -12,31 0,18 6,33 18,44 13,11 31,24 57,38 20,11 37,21 49,30 12,8 23,20 31,33 9,14 14,31 14,50 0,35 -13,62 -38,81 -25,19 -58,29 -96,29 -34,0 -63,-6 -86,-18 -22,-11 -34,-30 -34,-57 0,-16 5,-28 15,-36 9,-9 23,-13 39,-13 12,0 22,3 28,8 -4,11 -6,21 -6,31 0,15 5,27 14,35 10,9 22,13 38,13 17,0 30,-5 39,-14 9,-9 14,-22 14,-39 0,-19 -6,-33 -19,-45 -12,-11 -31,-24 -56,-37 -21,-12 -37,-22 -49,-31 -13,-9 -23,-20 -32,-34 -9,-13 -13,-30 -13,-49 0,-31 12,-55 37,-72 25,-17 56,-26 91,-26 33,0 60,6 81,18 21,12 32,31 32,58 0,16 -5,28 -15,36 -10,9 -23,13 -40,13 -12,0 -21,-3 -28,-8 4,-11 6,-22 6,-31 0,-16 -4,-27 -12,-36 -7,-9 -19,-13 -33,-13zm235 -169c15,0 27,4 37,11 9,8 14,18 14,32 0,15 -5,26 -15,33 -10,8 -23,12 -39,12 -15,0 -27,-4 -36,-11 -10,-8 -14,-18 -14,-32 0,-15 5,-26 15,-33 10,-8 22,-12 38,-12zm36 444c0,22 7,38 21,45 -4,7 -10,13 -18,16 -8,4 -17,6 -27,6 -18,0 -31,-5 -40,-15 -8,-11 -13,-25 -13,-43l0 -307 77 0 0 298zm221 -271c-47,0 -70,51 -70,152 0,41 5,74 16,99 10,26 30,38 61,38 20,0 37,-5 52,-16 15,-11 24,-26 29,-46 8,4 14,8 18,13 3,5 5,11 5,19 0,17 -6,32 -17,45 -10,12 -24,22 -42,29 -17,6 -34,10 -52,10 -51,0 -89,-17 -114,-50 -24,-33 -37,-78 -37,-134 0,-59 14,-108 40,-144 27,-37 67,-56 121,-56 31,0 57,7 78,20 20,13 30,33 30,60 0,15 -4,27 -14,36 -10,8 -23,12 -40,12 -5,0 -10,-1 -15,-2 -6,-1 -10,-3 -13,-5 3,-12 5,-22 5,-32 0,-32 -14,-48 -41,-48zm407 230c10,5 16,15 16,29 0,17 -6,32 -17,45 -11,12 -25,22 -43,29 -18,6 -36,10 -54,10 -51,0 -88,-17 -113,-50 -24,-33 -37,-78 -37,-134 0,-59 14,-108 40,-144 27,-37 67,-56 122,-56 34,0 61,9 82,27 21,18 31,43 31,75 0,41 -14,69 -42,85 -28,16 -66,25 -114,25 -13,0 -26,-1 -38,-2 1,37 7,66 18,88 11,21 31,32 58,32 21,0 39,-5 54,-15 16,-11 28,-25 37,-44zm-98 -231c-25,0 -42,13 -52,39 -11,26 -16,58 -17,96 14,1 24,2 31,2 58,0 87,-24 87,-70 0,-19 -4,-35 -12,-48 -8,-13 -20,-19 -37,-19z"/>
  </g>
 </g>
</svg>
